<svg xmlns="http://www.w3.org/2000/svg" xmlns:xlink="http://www.w3.org/1999/xlink" width="500" height="500" viewBox="0 0 500 500">
  <defs>
    <circle id="bonvivant-logo-a" cx="215" cy="215" r="215"/>
    <linearGradient id="bonvivant-logo-c" x1="50%" x2="50%" y1="118.916%" y2="5.111%">
      <stop offset="0%" stop-color="#AA004F"/>
      <stop offset="100%" stop-color="#FF0A4F"/>
    </linearGradient>
  </defs>
  <g fill="none" fill-rule="evenodd">
    <g transform="translate(35 35)">
      <mask id="bonvivant-logo-b" fill="#fff">
        <use xlink:href="#bonvivant-logo-a"/>
      </mask>
      <use fill="#F7334F" xlink:href="#bonvivant-logo-a"/>
      <g mask="url(#bonvivant-logo-b)">
        <g transform="translate(-702 128)">
          <path fill="#FF794F" fill-opacity=".5" d="M2.97699093,42.5907711 C706.659602,-60.9236862 944.197692,123.373066 1496.33392,70.9369005 L1654,288 L1.7159652,288 L2.97699093,42.5907711 Z"/>
          <path fill="url(#bonvivant-logo-c)" fill-opacity=".5" d="M0,309.683566 C265.628057,356.772145 754.948804,356.772145 1467.96224,309.683566 L1467.96224,49.9262576 C929.154186,-170.915801 548.862348,435.595432 2.66361351,49.9262576 L0,309.683566 Z"/>
          <path fill="#F7334F" d="M25,1157.94817 L1492.96224,1157.94817 L1469.99684,145.584591 C931.188788,-7.39567648 550.89695,412.74282 4.69821558,145.584591 L25,1157.94817 Z"/>
          <path fill="#000" fill-opacity=".089" d="M785.53829,185.113821 L1007.91586,5.40015541 L1144.51335,132.896777 C1126.81822,218.79555 1059.51302,286.829957 942.597747,337 L785.53829,185.113821 Z"/>
        </g>
      </g>
    </g>
    <g fill="#FFF" stroke="#FFF" stroke-linecap="round" stroke-linejoin="round" stroke-width="5" transform="rotate(-8 1242.792 -574.143)">
      <path d="M141.106049,57.096851 C157.141081,40.4431103 169.943536,22.3839221 179.513414,2.9192866 C191.704577,-2.44404645 209.059252,-1.9275523 226.821202,17.5397344 C229.672219,20.6644801 234.085244,30.4062791 246.393741,35.5226215 C193.216738,64.4205307 218.922307,190.141084 133.824941,187.270059 C100.990855,185.004702 79.5538908,174.073388 69.5140482,154.476116"/>
      <path d="M110.452304,38.8556014 C110.452304,38.8556014 57.7867096,159.785728 30.9945822,216.521132 C75.9224145,151.658417 232.448548,75.800136 110.452304,38.8556014 Z" transform="rotate(24 93.515 127.688)"/>
    </g>
  </g>
</svg>
